<svg width="24" height="24" viewBox="0 0 24 24" fill="none" xmlns="http://www.w3.org/2000/svg">
<path d="M12 6.441V9.771M20.59 15.17C21.32 16.39 20.74 17.97 19.39 18.42C14.6087 20.01 9.44127 20.01 4.65999 18.42C3.21999 17.94 2.66999 16.48 3.45999 15.17L4.72999 13.05C5.07999 12.47 5.35999 11.44 5.35999 10.77V8.67C5.35868 7.79456 5.52998 6.92744 5.86408 6.11826C6.19819 5.30907 6.68855 4.5737 7.30712 3.9542C7.92569 3.33471 8.66033 2.84324 9.46901 2.50792C10.2777 2.1726 11.1445 2 12.02 2C15.68 2 18.68 5 18.68 8.66V10.76C18.68 10.94 18.7 11.14 18.73 11.35" stroke="#272727" stroke-opacity="0.5" stroke-width="1.5" stroke-miterlimit="10" stroke-linecap="round"/>
<path d="M15.33 18.82C15.33 20.65 13.83 22.15 12 22.15C11.09 22.15 10.25 21.77 9.64998 21.17C9.04998 20.57 8.66998 19.73 8.66998 18.82" stroke="currentColor" stroke-opacity="1.0" stroke-width="1.5" stroke-miterlimit="10"/>
</svg>
